<svg xmlns="http://www.w3.org/2000/svg" width="1200" height="800" viewBox="0 0 1200 800" role="img" aria-label="Illustration comparing one decorative panel sample under two light sources"><rect width="1200" height="800" fill="#f5eee5"/><rect x="80" y="80" width="500" height="620" rx="28" fill="#e6d4bd"/><rect x="620" y="80" width="500" height="620" rx="28" fill="#d3bb9f"/><circle cx="330" cy="210" r="72" fill="#fff4d8"/><circle cx="870" cy="210" r="72" fill="#ffcd87"/><path d="M178 205h305M717 205h305" stroke="#9b7754" stroke-width="6" opacity=".5"/><rect x="190" y="330" width="280" height="270" rx="16" fill="#9a7556"/><rect x="730" y="330" width="280" height="270" rx="16" fill="#9a7556"/><path d="M230 345v240m50-240v240m50-240v240m50-240v240m50-240v240M770 345v240m50-240v240m50-240v240m50-240v240m50-240v240" stroke="#c7a789" stroke-width="18"/><path d="M580 465h40" stroke="#6e513a" stroke-width="12" stroke-linecap="round"/><circle cx="600" cy="465" r="20" fill="#6e513a"/></svg>
